PathFileType	4	(X/Y/Z)	E:\Qualisys_Data\Carbon_Farble_Plate\Data\Amateur_Runner\S14\T3\S14T3V23_c3d.trc
DataRate	CameraRate	NumFrames	NumMarkers	Units	OrigDataRate	OrigDataStartFrame	OrigNumFrames
200.000000	200.000000	4	39	mm	200.000000	71	286
Frame#	Time	LSHO			RSHO			LICST			RICST			LASIS			LHEEL			RASIS			LTROC			RTROC			SACR			LTH1			LSK4			LTH2			LTH3			RHM5			LSK2			LTH4			RTH1			LTOE			RTH2			RTH3			RTH4			LLEP			RLEP			LSK1			LSK3			RSK1			LHM5			RSK2			LFT1			RSK3			RSK4			LLME			RLME			RTOE			RHEEL			RFT1			RFT2			LFT2			
		X1	Y1	Z1	X2	Y2	Z2	X3	Y3	Z3	X4	Y4	Z4	X5	Y5	Z5	X6	Y6	Z6	X7	Y7	Z7	X8	Y8	Z8	X9	Y9	Z9	X10	Y10	Z10	X11	Y11	Z11	X12	Y12	Z12	X13	Y13	Z13	X14	Y14	Z14	X15	Y15	Z15	X16	Y16	Z16	X17	Y17	Z17	X18	Y18	Z18	X19	Y19	Z19	X20	Y20	Z20	X21	Y21	Z21	X22	Y22	Z22	X23	Y23	Z23	X24	Y24	Z24	X25	Y25	Z25	X26	Y26	Z26	X27	Y27	Z27	X28	Y28	Z28	X29	Y29	Z29	X30	Y30	Z30	X31	Y31	Z31	X32	Y32	Z32	X33	Y33	Z33	X34	Y34	Z34	X35	Y35	Z35	X36	Y36	Z36	X37	Y37	Z37	X38	Y38	Z38	X39	Y39	Z39	

72	0.355	-1539.3798828125	1455.219116210938	-494.4209289550781	-1431.077270507812	1435.85986328125	-219.8769226074219	-1541.55712890625	999.4676513671876	-477.0339965820312	-1495.204467773438	1001.180786132812	-207.1334686279297	-1495.422119140625	948.8380126953124	-453.4508666992188	-1345.246459960938	89.03268432617188	-342.98828125	-1477.443359375	954.7949829101562	-225.3693695068359	-1614.769409179688	876.8199462890625	-499.403076171875	-1634.040161132812	897.1406860351562	-162.1532897949219	-1660.16015625	998.9141845703124	-339.3660888671875	-1468.254760742188	669.6583862304688	-503.9718322753906	-1411.376586914062	303.930419921875	-425.6888122558594	-1530.011474609375	640.8878784179688	-462.8767700195312	-1410.777465820312	592.7015380859375	-473.7256469726562	-2164.35986328125	290.6726684570312	-177.0024566650391	-1435.755249023438	398.4180297851562	-444.9753112792969	-1478.630126953125	559.3153076171875	-444.1136474609375	-1592.897216796875	653.7140502929688	-174.6083831787109	-1111.957641601562	199.3499450683594	-402.2055358886719	-1663.000244140625	686.4352416992188	-159.1114654541016	-1631.340454101562	562.5148315429688	-191.9252319335938	-1707.7763671875	596.2903442382812	-176.7123870849609	-1416.8076171875	504.0770263671875	-457.7509460449219	-1719.407470703125	527.681884765625	-181.4729614257812	-1355.902465820312	417.2549743652344	-454.510009765625	-1331.340698242188	320.5396423339844	-438.5945739746094	-1822.792114257812	455.9970092773438	-178.5825500488281	-1169.794555664062	141.7170867919922	-449.8407287597656	-1852.569091796875	537.1022338867188	-178.1964569091797	-1318.784790039062	71.04212188720703	-317.394775390625	-1921.952514648438	427.4456481933594	-190.6502838134766	-1941.91845703125	503.7482299804688	-191.2908630371094	-1311.314575195312	137.0424652099609	-406.928466796875	-2096.103515625	423.6070556640625	-207.4453125	-2147.202880859375	215.9527282714844	-238.4708709716797	-2117.27099609375	472.8905334472656	-266.3593139648438	-2145.8974609375	459.4015808105469	-296.45849609375	-2143.817138671875	477.9696350097656	-245.9014282226562	-1330.148071289062	58.54916000366211	-367.332763671875
73	0.36	-1517.408935546875	1450.96728515625	-496.2130737304688	-1409.592529296875	1432.512084960938	-220.8513031005859	-1520.697387695312	996.1314086914062	-477.1613464355469	-1473.346435546875	998.3651733398438	-206.9183502197266	-1474.281860351562	945.293212890625	-453.6134643554688	-1328.076538085938	84.73179626464844	-341.6496276855469	-1455.659301757812	951.9712524414062	-225.8952331542969	-1593.847412109375	872.8822021484375	-498.7148132324219	-1611.189086914062	893.8569946289062	-160.9417114257812	-1638.864624023438	995.2517700195312	-339.190185546875	-1448.507690429688	665.29443359375	-504.3606262207031	-1392.797241210938	299.9129638671875	-425.8147277832031	-1509.308471679688	637.3076782226562	-461.8231506347656	-1389.889526367188	588.883056640625	-472.3499450683594	-2141.3701171875	296.5234680175781	-177.5976104736328	-1415.736206054688	394.4560546875	-444.6861877441406	-1458.566528320312	555.9014282226562	-443.2164001464844	-1567.429321289062	649.865478515625	-173.9280242919922	-1094.236083984375	193.5807037353516	-400.6837463378906	-1638.201293945312	681.9837036132812	-158.7337493896484	-1605.07421875	558.5516357421875	-191.2488861083984	-1681.328369140625	590.8565673828125	-175.8286590576172	-1397.081298828125	500.6048889160156	-456.80419921875	-1692.420654296875	522.6005859375	-180.1876525878906	-1336.002319335938	413.4258117675781	-453.6432189941406	-1312.566650390625	316.322509765625	-437.7919006347656	-1796.652954101562	453.1443481445312	-176.6285552978516	-1152.308349609375	136.6388549804688	-447.4991760253906	-1824.11865234375	534.1578369140625	-177.3763885498047	-1302.151245117188	66.3372802734375	-316.8908996582031	-1897.535766601562	426.096435546875	-190.1518402099609	-1914.751220703125	503.2270812988281	-191.0611267089844	-1293.704467773438	132.6963806152344	-406.5879516601562	-2070.13623046875	427.4357299804688	-208.2260131835938	-2125.099609375	220.9373931884766	-238.8499755859375	-2091.62451171875	477.96728515625	-267.5619812011719	-2119.654052734375	464.5057983398438	-298.0048522949219	-2117.441650390625	482.9412231445312	-247.1110992431641	-1314.451416015625	54.33174896240234	-367.7559509277344
74	0.365	-1494.875	1445.912109375	-497.4800109863281	-1388.550659179688	1428.945678710938	-222.1322174072266	-1499.990234375	992.504638671875	-477.2047424316406	-1452.041259765625	994.9004516601562	-206.4473571777344	-1450.998291015625	941.7872924804688	-454.214111328125	-1313.595336914062	79.87212371826172	-342.281005859375	-1433.737670898438	948.8118896484376	-226.0811920166016	-1573.460205078125	868.644775390625	-497.980224609375	-1589.114501953125	889.6513671875	-160.5327301025391	-1617.327026367188	991.3080444335938	-339.1370849609375	-1426.538696289062	660.7911987304688	-502.9779357910156	-1372.770385742188	295.8876953125	-425.8160095214844	-1488.058227539062	633.9649658203125	-460.5965270996094	-1369.418701171875	584.7129516601562	-471.5993957519531	-2116.845458984375	301.6568298339844	-178.5654449462891	-1396.942749023438	391.1739807128906	-445.5381164550781	-1437.85107421875	552.3318481445312	-442.4595031738281	-1542.191162109375	646.0426635742188	-173.1480255126953	-1077.932250976562	186.5702056884766	-398.9043273925781	-1614.014526367188	677.2022705078125	-158.3083038330078	-1578.327270507812	553.6205444335938	-190.4653625488281	-1655.559936523438	585.14208984375	-175.2002563476562	-1376.834716796875	497.3721008300781	-456.7368469238281	-1665.061767578125	517.27294921875	-179.1633148193359	-1315.659790039062	408.7876281738281	-452.5561828613281	-1294.070190429688	311.4367980957031	-436.6816101074219	-1770.351318359375	449.7802124023438	-176.3247375488281	-1136.669799804688	129.8456268310547	-445.5494995117188	-1795.08935546875	530.630859375	-175.4822998046875	-1287.650634765625	61.6678466796875	-316.2262573242188	-1870.834716796875	425.0075988769531	-190.555908203125	-1887.078125	502.4219360351562	-191.0862274169922	-1278.186279296875	127.4539108276367	-405.9241943359375	-2043.757446289062	431.5875549316406	-209.2597045898438	-2101.379150390625	226.2565765380859	-239.7446594238281	-2065.88720703125	480.7915954589844	-270.5899047851562	-2092.685791015625	468.3706665039062	-299.2388305664062	-2090.259765625	487.5923767089844	-248.6576080322266	-1299.326293945312	49.32701873779297	-366.9459838867188
75	0.37	-1471.885864257812	1441.119384765625	-499.4246520996094	-1367.19970703125	1425.3515625	-222.6591949462891	-1478.049682617188	988.4395141601562	-477.3936157226562	-1430.046875	991.68408203125	-207.1516723632812	-1430.136962890625	938.3561401367188	-454.1296691894531	-1301.909545898438	79.51777648925781	-341.6397094726562	-1412.2109375	945.4002075195312	-226.268798828125	-1552.602905273438	863.9945068359375	-497.2534484863281	-1566.015258789062	885.4046020507812	-159.5399475097656	-1595.474243164062	986.9931640625	-339.055419921875	-1405.712036132812	656.8482055664062	-502.2359924316406	-1353.814697265625	291.2717895507812	-425.7214050292969	-1466.5185546875	630.448486328125	-460.0517272949219	-1348.10888671875	580.7991943359375	-469.8117065429688	-2091.270751953125	306.2090454101562	-179.1971130371094	-1377.0087890625	387.5807800292969	-446.1371459960938	-1417.861938476562	548.50537109375	-442.0148315429688	-1517.095703125	641.8607788085938	-172.8147583007812	-1061.70263671875	176.2740478515625	-394.6340026855469	-1588.938598632812	671.5153198242188	-157.8387451171875	-1551.760620117188	548.5706176757812	-190.0695953369141	-1629.33935546875	578.8819580078125	-174.2387542724609	-1356.036254882812	492.8634033203125	-456.3815307617188	-1637.4345703125	510.7189025878906	-178.3763580322266	-1295.776489257812	404.2445373535156	-451.5730590820312	-1276.151245117188	306.3300476074219	-436.1024169921875	-1743.058471679688	445.9888305664062	-175.2858581542969	-1122.05615234375	122.2635116577148	-444.6494445800781	-1766.863403320312	527.7968139648438	-175.2289123535156	-1276.435180664062	59.28476333618164	-315.0760498046875	-1844.4658203125	423.8207397460938	-190.8057250976562	-1859.183837890625	501.2012329101562	-191.0584259033203	-1263.486694335938	122.1930084228516	-405.0349731445312	-2016.450805664062	435.0868835449219	-210.2788391113281	-2077.32080078125	230.4523620605469	-240.0836334228516	-2037.5830078125	484.411376953125	-272.8809814453125	-2064.754150390625	472.5133666992188	-300.69140625	-2062.412109375	491.6264953613281	-250.01025390625	-1288.910522460938	48.55157089233398	-366.6956481933594
